<svg width="1200" height="900" viewBox="0 0 1200 900" fill="none" xmlns="http://www.w3.org/2000/svg">
  <rect width="1200" height="900" rx="42" fill="#F7E9D2"/>
  <rect width="1200" height="900" rx="42" fill="url(#sky)"/>
  <circle cx="924" cy="170" r="74" fill="#FFD08A" fill-opacity="0.95"/>
  <path d="M0 638C117 585 220 566 309 581C433 601 509 696 623 709C745 723 812 623 931 607C1015 596 1105 620 1200 681V900H0V638Z" fill="#D6844F"/>
  <path d="M0 700C126 647 244 632 354 654C487 681 561 759 689 770C828 782 915 696 1041 685C1098 679 1151 683 1200 699V900H0V700Z" fill="#C76F40"/>
  <path d="M0 760C136 720 250 715 343 729C442 745 541 807 641 819C788 838 896 771 1039 754C1092 748 1146 750 1200 765V900H0V760Z" fill="#B85D38"/>
  <path d="M203 293C228 254 269 229 326 218C390 205 460 221 519 265C468 285 435 316 421 359C391 334 358 317 321 308C283 299 244 294 203 293Z" fill="#F6D9A8" fill-opacity="0.95"/>
  <path d="M842 319C880 269 924 241 976 235C1031 229 1090 249 1153 293C1101 301 1058 324 1026 361C987 354 949 350 910 350C886 350 863 340 842 319Z" fill="#F7D19A" fill-opacity="0.92"/>
  <path d="M167 109C203 112 232 124 255 145C280 168 293 197 294 232C260 228 231 216 208 196C186 176 172 147 167 109Z" fill="#8DA86B"/>
  <path d="M1070 773C1031 746 997 730 969 724C941 718 909 718 874 724C888 758 914 784 953 802C992 819 1031 810 1070 773Z" fill="#7FA06A"/>
  <path d="M114 799C151 736 196 693 247 670C300 646 364 645 439 666C394 699 362 742 343 795C294 807 251 812 214 810C177 808 144 805 114 799Z" fill="#7B9863"/>
  <path d="M746 194C759 172 777 158 800 151C825 144 851 146 879 157C862 174 849 194 842 218C823 219 805 218 789 213C774 209 760 202 746 194Z" fill="#F4B66C"/>
  <path d="M550 185H612V246H673V308H612V369H550V308H489V246H550V185Z" fill="#FFF8EF" fill-opacity="0.88"/>
  <path d="M545 180H607V241H668V303H607V364H545V303H484V241H545V180Z" stroke="#F4E5CB" stroke-width="10" stroke-linejoin="round"/>
  <circle cx="882" cy="185" r="10" fill="#FFF5E6"/>
  <circle cx="905" cy="148" r="6" fill="#FFF5E6"/>
  <circle cx="228" cy="182" r="8" fill="#FFF8EF"/>
  <circle cx="250" cy="153" r="5" fill="#FFF8EF"/>
  <defs>
    <linearGradient id="sky" x1="600" y1="0" x2="600" y2="900" gradientUnits="userSpaceOnUse">
      <stop stop-color="#FFF8EE"/>
      <stop offset="0.45" stop-color="#F8E8D1"/>
      <stop offset="1" stop-color="#F1D7B7"/>
    </linearGradient>
  </defs>
</svg>
