<svg width="960" height="560" viewBox="0 0 960 560" fill="none" xmlns="http://www.w3.org/2000/svg">
  <rect width="960" height="560" rx="44" fill="#7E4E3B"/>
  <rect width="960" height="560" rx="44" fill="url(#bg)"/>
  <ellipse cx="734" cy="118" rx="196" ry="138" fill="url(#glow)" fill-opacity="0.72"/>
  <ellipse cx="204" cy="424" rx="314" ry="142" fill="#E09A6D" fill-opacity="0.44"/>
  <ellipse cx="466" cy="536" rx="542" ry="124" fill="#6D4233" fill-opacity="0.62"/>

  <g opacity="0.88">
    <rect x="116" y="102" width="506" height="214" rx="26" fill="#F7E5D7" fill-opacity="0.16"/>
    <rect x="150" y="136" width="438" height="26" rx="13" fill="#FCEADD" fill-opacity="0.18"/>
    <rect x="150" y="196" width="438" height="26" rx="13" fill="#FCEADD" fill-opacity="0.16"/>
    <rect x="150" y="256" width="438" height="26" rx="13" fill="#FCEADD" fill-opacity="0.14"/>
  </g>

  <g opacity="0.94">
    <rect x="174" y="86" width="84" height="172" rx="16" fill="#FFF3EA" fill-opacity="0.12"/>
    <rect x="284" y="116" width="66" height="142" rx="14" fill="#FFD7C2" fill-opacity="0.18"/>
    <rect x="376" y="100" width="76" height="158" rx="14" fill="#FFE8DA" fill-opacity="0.13"/>
    <rect x="478" y="128" width="54" height="130" rx="12" fill="#FFD8C5" fill-opacity="0.16"/>
  </g>

  <g opacity="0.72">
    <rect x="690" y="110" width="132" height="190" rx="24" fill="#FFF5EE" fill-opacity="0.12"/>
    <rect x="724" y="148" width="64" height="112" rx="16" fill="#FFE4D4" fill-opacity="0.16"/>
    <path d="M756 170V238" stroke="#FFF2E8" stroke-opacity="0.48" stroke-width="12" stroke-linecap="round"/>
    <path d="M722 204H790" stroke="#FFF2E8" stroke-opacity="0.48" stroke-width="12" stroke-linecap="round"/>
  </g>

  <g opacity="0.58">
    <path d="M0 390C78 356 166 354 250 384C338 416 418 422 510 394C604 364 682 346 770 366C846 382 910 416 960 450V560H0V390Z" fill="#D48A61"/>
    <path d="M0 430C84 402 164 402 250 428C342 456 424 460 510 438C602 414 688 402 782 424C854 440 916 470 960 496V560H0V430Z" fill="#B26846"/>
  </g>

  <defs>
    <linearGradient id="bg" x1="120" y1="42" x2="836" y2="510" gradientUnits="userSpaceOnUse">
      <stop stop-color="#955E46"/>
      <stop offset="0.52" stop-color="#B87454"/>
      <stop offset="1" stop-color="#8C563F"/>
    </linearGradient>
    <radialGradient id="glow" cx="0" cy="0" r="1" gradientUnits="userSpaceOnUse" gradientTransform="translate(734 118) rotate(90) scale(138 196)">
      <stop stop-color="#FFD8BF" stop-opacity="0.95"/>
      <stop offset="1" stop-color="#FFD8BF" stop-opacity="0"/>
    </radialGradient>
  </defs>
</svg>
